<svg xmlns="http://www.w3.org/2000/svg" width="16.5" height="16.263" viewBox="0 0 16.5 16.263">
  <path id="Icon_ionic-ios-search" data-name="Icon ionic-ios-search" d="M20.312,19.115l-4.45-4.424a6.209,6.209,0,0,0,1.4-3.919,6.38,6.38,0,1,0-6.379,6.283,6.417,6.417,0,0,0,4.021-1.4l4.421,4.4a.692.692,0,0,0,.967.025A.672.672,0,0,0,20.312,19.115ZM10.879,15.7A5.015,5.015,0,0,1,7.337,14.26a4.872,4.872,0,0,1,0-6.968,5.064,5.064,0,0,1,7.083,0,4.872,4.872,0,0,1,0,6.968A5.015,5.015,0,0,1,10.879,15.7Z" transform="translate(-4.25 -4.243)" fill="#c8c8ca" stroke="#c8c8ca" stroke-width="0.5"/>
</svg>
